<?xml version="1.0" standalone="no"?>
<!DOCTYPE svg PUBLIC "-//W3C//DTD SVG 20010904//EN"
 "http://www.w3.org/TR/2001/REC-SVG-20010904/DTD/svg10.dtd">
<svg version="1.0" xmlns="http://www.w3.org/2000/svg"
 width="135.000000pt" height="135.000000pt" viewBox="0 0 135.000000 135.000000"
 preserveAspectRatio="xMidYMid meet">
<metadata>
Created by potrace 1.14, written by Peter Selinger 2001-2017
</metadata>
<g transform="translate(0.000000,135.000000) scale(0.100000,-0.100000)"
fill="#000000" stroke="none">
<path d="M260 1329 c-96 -3 -176 -6 -178 -7 -7 -4 4 -708 12 -720 4 -6 14 -12
22 -12 8 0 115 99 237 220 282 277 306 300 317 300 5 0 40 -29 77 -64 38 -35
86 -80 108 -101 59 -54 110 -77 175 -78 97 -1 180 53 213 138 20 52 21 309 1
326 -13 10 -633 10 -984 -2z"/>
<path d="M964 503 c-143 -139 -266 -258 -275 -263 -13 -7 -25 -2 -51 23 -19
17 -70 65 -112 105 -90 84 -119 101 -184 109 -88 10 -171 -30 -223 -107 -21
-32 -24 -48 -27 -188 -3 -102 0 -157 7 -166 11 -13 19 -13 892 -3 140 2 261 7
268 11 10 6 11 79 7 339 -2 183 -5 344 -5 358 -2 65 -30 44 -297 -218z"/>
</g>
</svg>
